<?xml version="1.0" encoding="UTF-8" standalone="no"?>
<!-- Created with Inkscape (http://www.inkscape.org/) -->

<svg
   xmlns:dc="http://purl.org/dc/elements/1.1/"
   xmlns:cc="http://creativecommons.org/ns#"
   xmlns:rdf="http://www.w3.org/1999/02/22-rdf-syntax-ns#"
   xmlns:svg="http://www.w3.org/2000/svg"
   xmlns="http://www.w3.org/2000/svg"
   xmlns:xlink="http://www.w3.org/1999/xlink"
   xmlns:sodipodi="http://sodipodi.sourceforge.net/DTD/sodipodi-0.dtd"
   xmlns:inkscape="http://www.inkscape.org/namespaces/inkscape"
   width="1400"
   height="1400"
   id="svg2"
   version="1.1"
   inkscape:version="0.48.5 r10040"
   sodipodi:docname="aeclogo_4a.svg"
   inkscape:export-filename="C:\Users\Adrian\Desktop\aeclogo_4a_512.png"
   inkscape:export-xdpi="32.914288"
   inkscape:export-ydpi="32.914288">
  <sodipodi:namedview
     id="base"
     pagecolor="#ffffff"
     bordercolor="#666666"
     borderopacity="1.0"
     inkscape:pageopacity="0.0"
     inkscape:pageshadow="2"
     inkscape:zoom="0.5"
     inkscape:cx="730.24799"
     inkscape:cy="667.21897"
     inkscape:document-units="px"
     inkscape:current-layer="g2992"
     showgrid="false"
     inkscape:window-width="463"
     inkscape:window-height="423"
     inkscape:window-x="-32000"
     inkscape:window-y="-31963"
     inkscape:window-maximized="0" />
  <defs
     id="defs4">
    <clipPath
       clipPathUnits="userSpaceOnUse"
       id="clipPath3017">
      <rect
         style="fill:#ffffff;fill-opacity:1;stroke:none"
         id="rect3019"
         width="1052.579"
         height="680.84283"
         x="-128.8829"
         y="-150.44055" />
    </clipPath>
    <clipPath
       id="clipPath4521"
       clipPathUnits="userSpaceOnUse">
      <rect
         y="-780.71448"
         x="-78.375282"
         height="1200"
         width="1200"
         id="rect4523"
         style="fill:#6990ee;fill-opacity:1;stroke:none" />
    </clipPath>
    <clipPath
       clipPathUnits="userSpaceOnUse"
       id="clipPath4699">
      <rect
         y="-780.71448"
         x="-78.375282"
         height="1200"
         width="1200"
         id="rect4701"
         style="fill:#6990ee;fill-opacity:1;stroke:none" />
    </clipPath>
    <linearGradient
       gradientUnits="userSpaceOnUse"
       y2="439.82019"
       x2="455.6098"
       y1="225.44864"
       x1="171.35501"
       id="linearGradient3789"
       xlink:href="#linearGradient3783"
       inkscape:collect="always" />
    <linearGradient
       gradientUnits="userSpaceOnUse"
       y2="687.78711"
       x2="-145.26315"
       y1="378.479"
       x1="-146.19463"
       id="linearGradient4978"
       xlink:href="#linearGradient4972"
       inkscape:collect="always" />
    <clipPath
       id="clipPath4069"
       clipPathUnits="userSpaceOnUse">
      <path
         sodipodi:type="arc"
         style="fill:#5677fc;fill-opacity:1;stroke:none"
         id="path4071"
         sodipodi:cx="314.30496"
         sodipodi:cy="332.14893"
         sodipodi:rx="194.26241"
         sodipodi:ry="146.50354"
         d="m 508.56737,332.14893 a 194.26241,146.50354 0 1 1 -388.52481,0 194.26241,146.50354 0 1 1 388.52481,0 z"
         transform="matrix(1.9397542,0,0,1.9397539,-295.36911,-596.31903)" />
    </clipPath>
    <clipPath
       id="clipPath4061"
       clipPathUnits="userSpaceOnUse">
      <path
         transform="matrix(1.9397527,0,0,1.9397523,-295.36893,-592.40054)"
         d="m 508.56737,332.14893 a 194.26241,146.50354 0 1 1 -388.52481,0 194.26241,146.50354 0 1 1 388.52481,0 z"
         sodipodi:ry="146.50354"
         sodipodi:rx="194.26241"
         sodipodi:cy="332.14893"
         sodipodi:cx="314.30496"
         id="path4063"
         style="fill:#455ede;fill-opacity:1;stroke:none"
         sodipodi:type="arc" />
    </clipPath>
    <clipPath
       id="clipPath4048"
       clipPathUnits="userSpaceOnUse">
      <path
         sodipodi:type="arc"
         style="fill:#5677fc;fill-opacity:1;stroke:none"
         id="path4050"
         sodipodi:cx="314.30496"
         sodipodi:cy="332.14893"
         sodipodi:rx="194.26241"
         sodipodi:ry="146.50354"
         d="m 508.56737,332.14893 a 194.26241,146.50354 0 1 1 -388.52481,0 194.26241,146.50354 0 1 1 388.52481,0 z"
         transform="translate(0,-146.50377)" />
    </clipPath>
    <clipPath
       id="clipPath4040"
       clipPathUnits="userSpaceOnUse">
      <path
         transform="translate(0,-144.48393)"
         d="m 508.56737,332.14893 a 194.26241,146.50354 0 1 1 -388.52481,0 194.26241,146.50354 0 1 1 388.52481,0 z"
         sodipodi:ry="146.50354"
         sodipodi:rx="194.26241"
         sodipodi:cy="332.14893"
         sodipodi:cx="314.30496"
         id="path4042"
         style="fill:#455ede;fill-opacity:1;stroke:none"
         sodipodi:type="arc" />
    </clipPath>
    <linearGradient
       id="linearGradient4972">
      <stop
         id="stop4974"
         offset="0"
         style="stop-color:#000000;stop-opacity:1;" />
      <stop
         id="stop4976"
         offset="1"
         style="stop-color:#000000;stop-opacity:0.2972973;" />
    </linearGradient>
    <linearGradient
       id="linearGradient3783">
      <stop
         id="stop3785"
         offset="0"
         style="stop-color:#000000;stop-opacity:0;" />
      <stop
         id="stop3787"
         offset="1"
         style="stop-color:#000000;stop-opacity:0.01176471;" />
    </linearGradient>
  </defs>
  <metadata
     id="metadata7">
    <rdf:RDF>
      <cc:Work
         rdf:about="">
        <dc:format>image/svg+xml</dc:format>
        <dc:type
           rdf:resource="http://purl.org/dc/dcmitype/StillImage" />
        <dc:title></dc:title>
      </cc:Work>
    </rdf:RDF>
  </metadata>
  <g
     inkscape:label="Layer 1"
     inkscape:groupmode="layer"
     id="layer1"
     transform="translate(0,347.63781)">
    <g
       id="g2992"
       transform="translate(78.375284,633.0767)">
      <flowRoot
         xml:space="preserve"
         id="flowRoot2996"
         style="font-size:40px;font-style:normal;font-weight:normal;line-height:125%;letter-spacing:0px;word-spacing:0px;fill:#000000;fill-opacity:1;stroke:none;font-family:Sans"
         transform="translate(21.624709,-192.71455)"><flowRegion
           id="flowRegion2998"><rect
             id="rect3000"
             width="47.477169"
             height="277.79196"
             x="89.90358"
             y="168.54813" /></flowRegion><flowPara
           id="flowPara3002" /></flowRoot>      <rect
         style="fill:#6990ee;fill-opacity:1;stroke:none"
         id="rect3044"
         width="1400"
         height="1400"
         x="-78.375282"
         y="-980.71454" />
      <g
         id="g4130"
         style="fill:#b3b3b3;fill-opacity:1"
         transform="translate(4,4)">
        <path
           style="fill:#b3b3b3;fill-opacity:1;stroke:none"
           d="m 868.75864,-601.05826 c -7.69192,0 -15.35612,2.94983 -21.25004,8.84375 l -21.75,21.71875 c -11.78784,11.78784 -11.78784,30.77466 0,42.5625 l 247.75,247.71875 -247.75,247.75 c -11.78784,11.78784 -11.78784,30.77466 0,42.5625 l 21.75,21.7187 c 11.78784,11.7879 30.74344,11.7879 42.53124,0 l 267.90626,-267.93745 c 0.191,-0.17267 0.3749,-0.35282 0.5625,-0.53125 l 22.2812,-22.25 c 0.01,-0.005 -0.01,-0.0258 0,-0.0312 0.3684,-0.36837 0.7172,-0.74302 1.0626,-1.125 3.1152,-3.44572 5.2894,-7.39866 6.5312,-11.59375 0.1381,-0.46494 0.2599,-0.90523 0.375,-1.375 1.6138,-6.58559 0.9734,-13.60485 -1.9375,-19.84375 -0.2072,-0.44519 -0.426,-0.87565 -0.6563,-1.3125 -0.6944,-1.31758 -1.4711,-2.58683 -2.375,-3.8125 -0.2993,-0.40656 -0.6151,-0.79279 -0.9374,-1.1875 -0.6447,-0.78941 -1.3258,-1.54451 -2.0626,-2.28125 l -22.2812,-22.28125 c -0.1876,-0.17843 -0.3715,-0.35858 -0.5625,-0.53125 l -267.90626,-267.9375 c -5.8939,-5.89392 -13.5894,-8.84375 -21.2812,-8.84375 z"
           id="path4132"
           inkscape:connector-curvature="0" />
        <path
           style="fill:#b3b3b3;fill-opacity:1;stroke:none"
           d="m 458.73523,3.827275 c -6.17883,15.483158 1.31308,32.925563 16.79623,39.104401 l 28.53081,11.385738 c 15.48317,6.178841 32.92556,-1.313073 39.1044,-16.796231 L 784.51421,-567.25635 c 6.17883,-15.48314 -1.31308,-32.92551 -16.79624,-39.10436 l -28.53081,-11.38573 c -15.48316,-6.17884 -32.92555,1.31304 -39.10438,16.79618 z"
           id="path4134"
           inkscape:connector-curvature="0"
           sodipodi:nodetypes="cssccsscc" />
        <path
           id="path4136"
           d="m 374.49048,-601.05826 c 7.6919,0 15.3561,2.94983 21.25,8.84375 l 21.75,21.71875 c 11.7878,11.78784 11.7878,30.77466 0,42.5625 l -247.75001,247.71875 247.75001,247.75 c 11.7878,11.78784 11.7878,30.77466 0,42.5625 l -21.75,21.7187 c -11.7879,11.7879 -30.7434,11.7879 -42.5313,0 L 85.302969,-236.12076 c -0.191,-0.17267 -0.3749,-0.35282 -0.5625,-0.53125 l -22.2812,-22.25 c -0.005,-0.005 0.005,-0.0258 0,-0.0312 -0.3684,-0.36837 -0.7172,-0.74302 -1.0626,-1.125 -3.1152,-3.44572 -5.2894,-7.39866 -6.5312,-11.59375 -0.1381,-0.46494 -0.2599,-0.90523 -0.375,-1.375 -1.6138,-6.58559 -0.9734,-13.60485 1.9375,-19.84375 0.2072,-0.44519 0.426,-0.87565 0.6563,-1.3125 0.6944,-1.31758 1.4711,-2.58683 2.375,-3.8125 0.2993,-0.40656 0.6151,-0.79279 0.9374,-1.1875 0.6447,-0.78941 1.3258,-1.54451 2.0626,-2.28125 l 22.2812,-22.28125 c 0.1876,-0.17843 0.3715,-0.35858 0.5625,-0.53125 l 267.906211,-267.9375 c 5.894,-5.89392 13.5894,-8.84375 21.2813,-8.84375 z"
           style="fill:#b3b3b3;fill-opacity:1;stroke:none"
           inkscape:connector-curvature="0" />
      </g>
      <g
         id="g4125">
        <path
           inkscape:connector-curvature="0"
           id="rect4364"
           d="m 868.75864,-601.05826 c -7.69192,0 -15.35612,2.94983 -21.25004,8.84375 l -21.75,21.71875 c -11.78784,11.78784 -11.78784,30.77466 0,42.5625 l 247.75,247.71875 -247.75,247.75 c -11.78784,11.78784 -11.78784,30.77466 0,42.5625 l 21.75,21.7187 c 11.78784,11.7879 30.74344,11.7879 42.53124,0 l 267.90626,-267.93745 c 0.191,-0.17267 0.3749,-0.35282 0.5625,-0.53125 l 22.2812,-22.25 c 0.01,-0.005 -0.01,-0.0258 0,-0.0312 0.3684,-0.36837 0.7172,-0.74302 1.0626,-1.125 3.1152,-3.44572 5.2894,-7.39866 6.5312,-11.59375 0.1381,-0.46494 0.2599,-0.90523 0.375,-1.375 1.6138,-6.58559 0.9734,-13.60485 -1.9375,-19.84375 -0.2072,-0.44519 -0.426,-0.87565 -0.6563,-1.3125 -0.6944,-1.31758 -1.4711,-2.58683 -2.375,-3.8125 -0.2993,-0.40656 -0.6151,-0.79279 -0.9374,-1.1875 -0.6447,-0.78941 -1.3258,-1.54451 -2.0626,-2.28125 l -22.2812,-22.28125 c -0.1876,-0.17843 -0.3715,-0.35858 -0.5625,-0.53125 l -267.90626,-267.9375 c -5.8939,-5.89392 -13.5894,-8.84375 -21.2812,-8.84375 z"
           style="fill:#ffffff;fill-opacity:1;stroke:none" />
        <path
           sodipodi:nodetypes="cssccsscc"
           inkscape:connector-curvature="0"
           id="rect4002"
           d="m 458.73523,3.827275 c -6.17883,15.483158 1.31308,32.925563 16.79623,39.104401 l 28.53081,11.385738 c 15.48317,6.178841 32.92556,-1.313073 39.1044,-16.796231 L 784.51421,-567.25635 c 6.17883,-15.48314 -1.31308,-32.92551 -16.79624,-39.10436 l -28.53081,-11.38573 c -15.48316,-6.17884 -32.92555,1.31304 -39.10438,16.79618 z"
           style="fill:#ffffff;fill-opacity:1;stroke:none" />
        <path
           inkscape:connector-curvature="0"
           style="fill:#ffffff;fill-opacity:1;stroke:none"
           d="m 374.49048,-601.05826 c 7.6919,0 15.3561,2.94983 21.25,8.84375 l 21.75,21.71875 c 11.7878,11.78784 11.7878,30.77466 0,42.5625 l -247.75001,247.71875 247.75001,247.75 c 11.7878,11.78784 11.7878,30.77466 0,42.5625 l -21.75,21.7187 c -11.7879,11.7879 -30.7434,11.7879 -42.5313,0 L 85.302969,-236.12076 c -0.191,-0.17267 -0.3749,-0.35282 -0.5625,-0.53125 l -22.2812,-22.25 c -0.005,-0.005 0.005,-0.0258 0,-0.0312 -0.3684,-0.36837 -0.7172,-0.74302 -1.0626,-1.125 -3.1152,-3.44572 -5.2894,-7.39866 -6.5312,-11.59375 -0.1381,-0.46494 -0.2599,-0.90523 -0.375,-1.375 -1.6138,-6.58559 -0.9734,-13.60485 1.9375,-19.84375 0.2072,-0.44519 0.426,-0.87565 0.6563,-1.3125 0.6944,-1.31758 1.4711,-2.58683 2.375,-3.8125 0.2993,-0.40656 0.6151,-0.79279 0.9374,-1.1875 0.6447,-0.78941 1.3258,-1.54451 2.0626,-2.28125 l 22.2812,-22.28125 c 0.1876,-0.17843 0.3715,-0.35858 0.5625,-0.53125 l 267.906211,-267.9375 c 5.894,-5.89392 13.5894,-8.84375 21.2813,-8.84375 z"
           id="path4123" />
      </g>
    </g>
  </g>
</svg>
