<?xml version="1.0" encoding="UTF-8" standalone="no"?>
<svg
   xmlns:dc="http://purl.org/dc/elements/1.1/"
   xmlns:cc="http://creativecommons.org/ns#"
   xmlns:rdf="http://www.w3.org/1999/02/22-rdf-syntax-ns#"
   xmlns:svg="http://www.w3.org/2000/svg"
   xmlns="http://www.w3.org/2000/svg"
   xmlns:sodipodi="http://sodipodi.sourceforge.net/DTD/sodipodi-0.dtd"
   xmlns:inkscape="http://www.inkscape.org/namespaces/inkscape"
   version="1.1"
   width="24"
   height="24"
   viewBox="0 0 24 24"
   id="svg2"
   inkscape:version="0.48.5 r10040"
   sodipodi:docname="ic_google-plus.svg">
  <metadata
     id="metadata10">
    <rdf:RDF>
      <cc:Work
         rdf:about="">
        <dc:format>image/svg+xml</dc:format>
        <dc:type
           rdf:resource="http://purl.org/dc/dcmitype/StillImage" />
      </cc:Work>
    </rdf:RDF>
  </metadata>
  <defs
     id="defs8" />
  <sodipodi:namedview
     pagecolor="#ffffff"
     bordercolor="#666666"
     borderopacity="1"
     objecttolerance="10"
     gridtolerance="10"
     guidetolerance="10"
     inkscape:pageopacity="0"
     inkscape:pageshadow="2"
     inkscape:window-width="640"
     inkscape:window-height="480"
     id="namedview6"
     showgrid="false"
     inkscape:zoom="9.8333333"
     inkscape:cx="12"
     inkscape:cy="12"
     inkscape:window-x="0"
     inkscape:window-y="37"
     inkscape:window-maximized="0"
     inkscape:current-layer="svg2" />
  <path
     d="M9.3,22.3C5.97,22.3 3.85,20.81 3.85,18.6C3.85,16.4 5.81,15.69 6.5,15.44C7.8,15 9.5,14.95 9.77,14.95C10.07,14.95 10.23,14.95 10.5,14.97C12.84,16.66 13.85,17.41 13.85,19C13.85,20.77 12.03,22.3 9.3,22.3M5.65,4.31C5.65,2.1 6.96,1.1 8.34,1.1C11,1.1 12.35,4.55 12.35,6.63C12.35,9.2 10.28,9.7 9.46,9.7C7,9.7 5.65,6.64 5.65,4.31M13.3,13.45L12.22,12.6C11.86,12.3 11.4,11.91 11.4,11.18C11.4,10.45 11.95,9.89 12.37,9.56C13.68,8.54 14.94,7.46 14.94,5.22C14.94,3.15 13.67,1.96 12.9,1.3H14.65L15.9,0.05H9.67C5.31,0.05 3.07,2.76 3.07,5.77C3.07,8.1 4.86,10.6 8.05,10.6H8.85C8.72,10.95 8.5,11.44 8.5,11.9C8.5,12.91 8.92,13.33 9.42,13.9C8,14 5.41,14.33 3.5,15.5C1.64,16.6 1.2,18.13 1.2,19.25C1.2,21.55 3.26,23.75 7.77,23.75C13.12,23.75 15.8,20.79 15.8,17.87C15.8,15.71 14.67,14.6 13.3,13.45M21,10V7H19V10H16V12H19V15H21V12H24V10H21Z"
     id="path4"
     style="fill:#ffffff" />
</svg>
